<svg width="23" height="22" viewBox="0 0 23 22" fill="none" xmlns="http://www.w3.org/2000/svg">
<path d="M20.875 0.032959H2.12012C1.26074 0.032959 0.5625 0.740967 0.5625 1.61011V20.3308C0.5625 21.2 1.26074 21.908 2.12012 21.908H20.875C21.7344 21.908 22.4375 21.2 22.4375 20.3308V1.61011C22.4375 0.740967 21.7344 0.032959 20.875 0.032959ZM7.17383 18.783H3.93164V8.34351H7.17871V18.783H7.17383ZM5.55273 6.91772C4.5127 6.91772 3.67285 6.073 3.67285 5.03784C3.67285 4.00269 4.5127 3.15796 5.55273 3.15796C6.58789 3.15796 7.43262 4.00269 7.43262 5.03784C7.43262 6.07788 6.59277 6.91772 5.55273 6.91772ZM19.3271 18.783H16.085V13.7048C16.085 12.4939 16.0605 10.9363 14.4004 10.9363C12.7109 10.9363 12.4521 12.2546 12.4521 13.6169V18.783H9.20996V8.34351H12.3203V9.76929H12.3643C12.7988 8.94897 13.8584 8.08472 15.4355 8.08472C18.7168 8.08472 19.3271 10.2478 19.3271 13.0603V18.783Z" fill="#9999A7"/>
</svg>
